<?xml version="1.0" encoding="utf-8"?>
<!-- Generator: Adobe Illustrator 22.1.0, SVG Export Plug-In . SVG Version: 6.00 Build 0)  -->
<svg version="1.1" id="Layer_1" xmlns="http://www.w3.org/2000/svg" xmlns:xlink="http://www.w3.org/1999/xlink" x="0px" y="0px"
	 viewBox="0 0 500 500" style="enable-background:new 0 0 500 500;" xml:space="preserve">
<style type="text/css">
	.st0{clip-path:url(#SVGID_2_);}
	.st1{fill:url(#SVGID_3_);}
	.st2{opacity:5.000000e-02;fill:#FFFFFF;}
</style>
<g>
	<g>
		<defs>
			<rect id="SVGID_1_" x="0.6" width="500.7" height="500.7"/>
		</defs>
		<clipPath id="SVGID_2_">
			<use xlink:href="#SVGID_1_"  style="overflow:visible;"/>
		</clipPath>
		<g class="st0">
			
				<linearGradient id="SVGID_3_" gradientUnits="userSpaceOnUse" x1="-0.7" y1="251.65" x2="500" y2="251.65" gradientTransform="matrix(1 0 0 -1 0 502)">
				<stop  offset="0" style="stop-color:#13547B"/>
				<stop  offset="1" style="stop-color:#81CEC6"/>
			</linearGradient>
			<rect x="-0.7" class="st1" width="500.7" height="500.7"/>
			<path class="st2" d="M357.8,369.1c-5.4,1.8-11.9,7.5-14.6,12.7c-1.8,3.4-2.3,6.5-2.8,18.3c-0.7,16-1.8,19-7.9,20.7
				c-3,0.9-3.1,1-3.1,7c0,6.1,0.1,6.2,3.2,7.1c6,1.9,7.1,4.8,7.8,20.8c0.7,15.5,1.9,19.4,7.7,24.9c2.9,2.8,13.2,8,14.3,7.3
				c0.4-0.3,1.3-2.4,1.9-4.8c1.2-4.3,1.2-4.4-2.2-7.8c-4.5-4.5-5.7-9-5.7-21.8c0-12.6-1.3-17.4-6-22.1l-3.6-3.6l3.6-3.5
				c4.6-4.5,6-9.4,6-21.8c0-13.3,1.3-18.3,5.7-22.2c3.5-3,3.5-3,2.3-7.5c-0.7-2.4-1.6-4.6-1.9-4.8
				C362.2,367.8,360,368.3,357.8,369.1L357.8,369.1z M482,372.5c-1.5,4.3-1.5,5.3-0.4,6c0.7,0.5,1.6,0.9,2,0.9s1.7,1.5,3,3.2
				c2,2.9,2.4,4.8,2.9,17.3c0.7,16,2.2,20.9,7.5,25.3l3.4,2.8l-3,2.2c-5.7,4.3-7.3,9.2-7.8,24.2c-0.5,14.9-2.1,20.1-6.8,22.2
				c-1.4,0.6-2.3,1.7-2,2.4c0.2,0.6,1,3,1.7,5.3c1,3.5,1.5,4,3.3,3.5c7.8-2.4,14-7.5,17.3-14.2c2.5-5.2,2.8-6.9,3.1-18.2
				c0.2-6.9,0.8-13.8,1.4-15.3c1.1-2.8,5.3-5.7,8.3-5.7c1.2,0,1.5-1.3,1.5-6.5c0-5-0.3-6.5-1.5-6.5c-2.8,0-6.7-2.4-8.1-5.1
				c-1-1.9-1.4-6.2-1.4-13.7c0-17.3-3.8-26.1-13.6-31.3C484.3,366.7,484.1,366.7,482,372.5L482,372.5z M382.6,448.6
				c-4.1,1.1-6.2,4.3-6.2,9.3c0,7.3,7.9,11.7,14.8,8.1c5.8-3,7-9.4,2.7-14.4C391.2,448.3,387.5,447.4,382.6,448.6z M418.6,448.6
				c-4.1,1.1-6.2,4.3-6.2,9.3c0,7.3,7.9,11.7,14.8,8.1c5.8-3,7-9.4,2.7-14.4C427.2,448.3,423.5,447.4,418.6,448.6z M455.6,448.6
				c-4.1,1.1-6.2,4.3-6.2,9.3c0,7.3,7.9,11.7,14.8,8.1c5.8-3,7-9.4,2.7-14.4C464.2,448.3,460.5,447.4,455.6,448.6z"/>
			<path class="st2" d="M6.3,434.7c-3.1,1-6.9,4.4-8.5,7.4c-1,2-1.3,3.8-1.6,10.6c-0.4,9.3-1,11.1-4.6,12c-1.7,0.5-1.8,0.6-1.8,4.1
				s0.1,3.6,1.9,4.1c3.5,1.1,4.1,2.8,4.5,12.1c0.4,9,1.1,11.3,4.5,14.5c1.7,1.6,7.7,4.7,8.3,4.2c0.2-0.2,0.8-1.4,1.1-2.8
				c0.7-2.5,0.7-2.6-1.3-4.5c-2.6-2.6-3.3-5.2-3.3-12.7c0-7.3-0.8-10.1-3.5-12.9l-2.1-2.1l2.1-2c2.7-2.6,3.5-5.5,3.5-12.7
				c0-7.7,0.8-10.6,3.3-12.9c2-1.7,2-1.7,1.3-4.4c-0.4-1.4-0.9-2.7-1.1-2.8C8.8,433.9,7.5,434.2,6.3,434.7L6.3,434.7z M78.5,436.6
				c-0.9,2.5-0.9,3.1-0.2,3.5c0.4,0.3,0.9,0.5,1.2,0.5s1,0.9,1.7,1.9c1.2,1.7,1.4,2.8,1.7,10.1c0.4,9.3,1.3,12.2,4.4,14.7l2,1.6
				l-1.7,1.3c-3.3,2.5-4.2,5.4-4.5,14.1c-0.3,8.7-1.2,11.7-4,12.9c-0.8,0.3-1.3,1-1.2,1.4c0.1,0.3,0.6,1.7,1,3.1
				c0.6,2,0.9,2.3,1.9,2c4.5-1.4,8.1-4.4,10.1-8.3c1.5-3,1.6-4,1.8-10.6c0.1-4,0.5-8,0.8-8.9c0.6-1.6,3.1-3.3,4.8-3.3
				c0.7,0,0.9-0.8,0.9-3.8c0-2.9-0.2-3.8-0.9-3.8c-1.6,0-3.9-1.4-4.7-3c-0.6-1.1-0.8-3.6-0.8-8c0-10.1-2.2-15.2-7.9-18.2
				C79.9,433.3,79.8,433.3,78.5,436.6L78.5,436.6z M20.7,480.9c-2.4,0.6-3.6,2.5-3.6,5.4c0,4.2,4.6,6.8,8.6,4.7
				c3.4-1.7,4.1-5.5,1.6-8.4C25.7,480.8,23.5,480.2,20.7,480.9z M41.6,480.9c-2.4,0.6-3.6,2.5-3.6,5.4c0,4.2,4.6,6.8,8.6,4.7
				c3.4-1.7,4.1-5.5,1.6-8.4C46.6,480.8,44.5,480.2,41.6,480.9z M63.2,480.9c-2.4,0.6-3.6,2.5-3.6,5.4c0,4.2,4.6,6.8,8.6,4.7
				c3.4-1.7,4.1-5.5,1.6-8.4C68.2,480.8,66,480.2,63.2,480.9z"/>
		</g>
	</g>
</g>
</svg>
