<svg id="svg" version="1.1" width="1000" height="197" xmlns="http://www.w3.org/2000/svg" xmlns:xlink="http://www.w3.org/1999/xlink" style="display: block;"><g id="svgg"><path id="path0" d="M16.415 38.276 C 16.423 38.454,19.826 40.641,23.977 43.135 C 32.808 48.441,31.987 46.968,31.995 57.526 C 32.000 65.196,32.247 67.200,33.187 67.200 C 33.387 67.200,33.563 63.089,33.584 57.900 C 33.608 52.283,33.777 48.547,34.012 48.467 C 34.225 48.393,34.402 48.123,34.405 47.867 C 34.408 47.610,37.648 45.428,41.605 43.019 C 45.562 40.609,48.800 38.473,48.800 38.273 C 48.800 38.072,48.368 38.191,47.840 38.537 C 42.984 41.719,34.109 46.878,33.168 47.066 C 32.172 47.266,30.834 46.605,24.495 42.785 C 15.674 37.469,16.396 37.873,16.415 38.276 " stroke="none" fill="#000000" fill-rule="evenodd"></path><path id="path1" d="M0.000 39.400 L 0.000 78.800 200.000 78.800 L 400.000 78.800 400.000 39.400 L 400.000 0.000 200.000 0.000 L 0.000 0.000 0.000 39.400 M20.800 9.600 C 20.800 14.000,20.885 17.600,20.989 17.600 C 21.093 17.600,23.873 15.959,27.168 13.954 L 33.158 10.308 48.679 19.854 L 64.200 29.400 64.331 33.400 C 64.403 35.600,64.338 42.309,64.185 48.310 L 63.908 59.220 62.254 60.166 C 61.344 60.686,57.180 63.048,53.000 65.413 C 48.820 67.779,42.538 71.342,39.040 73.331 L 32.680 76.949 31.040 76.015 C 30.138 75.502,23.055 71.298,15.300 66.673 L 1.200 58.265 1.200 35.017 L 1.200 11.768 3.900 10.307 C 5.385 9.503,9.480 7.216,13.000 5.225 C 21.563 0.381,20.800 -0.046,20.800 9.600 M12.600 16.242 C 8.387 18.766,8.800 16.614,8.800 36.035 L 8.800 53.146 9.900 53.902 C 10.505 54.318,12.035 55.232,13.300 55.932 L 15.600 57.207 15.600 47.580 C 15.600 41.264,15.738 38.038,16.000 38.200 C 16.220 38.336,16.400 38.181,16.400 37.856 C 16.400 37.329,31.834 27.990,32.678 28.006 C 33.466 28.021,48.989 37.525,48.900 37.938 C 48.845 38.192,48.980 38.400,49.200 38.400 C 49.456 38.400,49.600 41.867,49.600 48.000 C 49.600 53.280,49.684 57.600,49.787 57.600 C 49.889 57.600,51.284 56.895,52.887 56.034 C 56.466 54.111,56.345 54.571,56.377 42.747 L 56.400 34.094 53.900 32.490 C 52.525 31.608,49.780 29.908,47.800 28.712 C 45.820 27.517,41.699 25.006,38.642 23.132 L 33.085 19.725 28.842 22.199 C 26.509 23.560,22.642 25.872,20.249 27.337 C 17.855 28.802,15.744 30.000,15.557 30.000 C 15.370 30.000,15.168 26.581,15.109 22.402 L 15.000 14.804 12.600 16.242 M164.027 27.443 C 167.682 28.523,167.685 28.527,166.789 30.503 C 165.944 32.369,166.010 32.355,162.616 31.441 C 157.208 29.986,153.273 31.966,151.815 36.873 C 148.914 46.643,156.208 54.147,164.514 49.937 C 166.367 48.998,166.557 49.103,167.208 51.427 C 167.809 53.575,167.811 53.573,164.499 54.614 C 154.196 57.855,146.200 51.906,146.200 41.000 C 146.200 30.214,153.815 24.422,164.027 27.443 M314.386 28.217 C 323.137 32.953,323.146 48.826,314.400 53.759 C 307.414 57.699,298.073 53.929,295.792 46.247 C 291.946 33.297,303.346 22.243,314.386 28.217 M342.827 27.443 C 346.482 28.523,346.485 28.527,345.589 30.503 C 344.744 32.369,344.810 32.355,341.416 31.441 C 336.008 29.986,332.073 31.966,330.615 36.873 C 327.714 46.643,335.008 54.147,343.314 49.937 C 345.167 48.998,345.357 49.103,346.008 51.427 C 346.609 53.575,346.611 53.573,343.299 54.614 C 332.996 57.855,325.000 51.906,325.000 41.000 C 325.000 30.214,332.615 24.422,342.827 27.443 M390.000 27.339 C 391.210 27.592,392.191 27.980,392.180 28.200 C 392.047 30.894,391.453 32.454,390.650 32.222 C 384.761 30.525,383.041 30.523,381.355 32.208 C 379.157 34.407,380.667 36.574,385.908 38.738 C 394.076 42.110,396.112 48.307,390.631 53.119 C 387.824 55.584,377.786 55.941,375.497 53.656 C 374.752 52.913,375.681 49.527,376.559 49.786 C 383.881 51.955,388.000 51.134,388.000 47.507 C 388.000 45.439,387.123 44.628,382.911 42.798 C 376.595 40.054,375.200 38.609,375.200 34.807 C 375.200 28.370,380.989 25.449,390.000 27.339 M98.400 33.000 L 98.400 38.800 104.000 38.800 L 109.600 38.800 109.600 33.000 L 109.600 27.200 112.200 27.200 L 114.800 27.200 114.800 41.000 L 114.800 54.800 112.200 54.800 L 109.600 54.800 109.600 48.800 L 109.600 42.800 104.000 42.800 L 98.400 42.800 98.400 48.800 L 98.400 54.800 95.800 54.800 L 93.200 54.800 93.200 41.000 L 93.200 27.200 95.800 27.200 L 98.400 27.200 98.400 33.000 M139.300 40.716 C 142.105 48.144,144.400 54.352,144.400 54.511 C 144.400 55.364,139.176 54.788,138.859 53.900 C 138.683 53.405,138.039 51.605,137.429 49.900 L 136.319 46.800 131.259 46.800 L 126.200 46.800 124.820 50.800 L 123.440 54.800 120.920 54.800 C 119.534 54.800,118.400 54.723,118.400 54.629 C 118.400 54.535,120.490 48.820,123.044 41.929 C 125.598 35.038,127.866 28.905,128.083 28.300 C 128.464 27.239,128.579 27.200,131.339 27.205 L 134.200 27.209 139.300 40.716 M176.890 33.430 L 177.000 39.660 182.195 33.430 L 187.391 27.200 190.344 27.200 L 193.297 27.200 191.353 29.500 C 190.284 30.765,187.828 33.654,185.894 35.920 C 183.732 38.454,182.492 40.226,182.673 40.520 C 182.836 40.784,184.873 43.430,187.201 46.400 C 189.529 49.370,191.943 52.475,192.564 53.300 L 193.695 54.800 190.547 54.780 L 187.400 54.759 182.200 47.900 L 177.000 41.041 176.891 47.920 L 176.781 54.800 174.191 54.800 L 171.600 54.800 171.600 41.000 L 171.600 27.200 174.190 27.200 L 176.780 27.200 176.890 33.430 M213.200 29.200 L 213.200 31.200 207.600 31.200 L 202.000 31.200 202.000 35.000 L 202.000 38.800 207.400 38.800 L 212.800 38.800 212.800 40.800 L 212.800 42.800 207.400 42.800 L 202.000 42.800 202.000 46.800 L 202.000 50.800 208.000 50.800 L 214.000 50.800 214.000 52.800 L 214.000 54.800 205.400 54.800 L 196.800 54.800 196.800 41.000 L 196.800 27.200 205.000 27.200 L 213.200 27.200 213.200 29.200 M233.714 28.152 C 238.628 30.594,237.962 41.200,232.894 41.200 C 232.407 41.200,232.515 41.477,233.341 42.339 C 234.278 43.317,238.117 51.202,238.970 53.900 C 239.245 54.771,239.170 54.800,236.607 54.800 L 233.959 54.800 233.345 53.300 C 229.952 45.017,228.525 43.200,225.413 43.200 L 224.400 43.200 224.400 49.000 L 224.400 54.800 221.800 54.800 L 219.200 54.800 219.200 40.973 L 219.200 27.146 225.700 27.273 C 231.084 27.378,232.460 27.529,233.714 28.152 M267.400 28.235 C 271.808 30.537,272.091 37.409,267.885 40.002 L 266.769 40.690 268.009 41.204 C 272.136 42.913,272.789 50.188,269.064 52.952 C 266.954 54.517,265.405 54.800,258.940 54.800 L 252.800 54.800 252.800 40.973 L 252.800 27.146 259.300 27.273 C 264.961 27.384,266.006 27.508,267.400 28.235 M282.000 39.000 L 282.000 50.800 288.000 50.800 L 294.000 50.800 294.000 52.800 L 294.000 54.800 285.400 54.800 L 276.800 54.800 276.800 41.000 L 276.800 27.200 279.400 27.200 L 282.000 27.200 282.000 39.000 M355.690 33.430 L 355.800 39.660 360.995 33.430 L 366.191 27.200 369.144 27.200 L 372.097 27.200 370.153 29.500 C 369.084 30.765,366.628 33.654,364.694 35.920 C 362.532 38.454,361.292 40.226,361.473 40.520 C 361.636 40.784,363.673 43.430,366.001 46.400 C 368.329 49.370,370.743 52.475,371.364 53.300 L 372.495 54.800 369.347 54.780 L 366.200 54.759 361.000 47.900 L 355.800 41.041 355.691 47.920 L 355.581 54.800 352.991 54.800 L 350.400 54.800 350.400 41.000 L 350.400 27.200 352.990 27.200 L 355.580 27.200 355.690 33.430 M224.400 35.200 L 224.400 39.600 225.903 39.600 C 229.855 39.600,232.000 38.043,232.000 35.175 C 232.000 32.108,230.223 30.837,225.900 30.810 L 224.400 30.800 224.400 35.200 M258.000 34.803 L 258.000 38.916 260.854 38.677 C 264.669 38.357,265.687 37.479,265.518 34.654 C 265.361 32.032,264.274 31.194,260.648 30.903 L 258.000 30.690 258.000 34.803 M305.711 31.224 C 299.295 33.180,298.433 46.588,304.491 50.197 C 310.060 53.515,315.400 49.014,315.400 41.000 C 315.400 33.549,311.383 29.495,305.711 31.224 M131.048 33.200 C 130.392 34.966,127.600 42.954,127.600 43.067 C 127.600 43.140,129.220 43.200,131.200 43.200 C 133.180 43.200,134.797 43.065,134.794 42.900 C 134.772 41.884,131.230 32.711,131.048 33.200 M258.000 46.795 L 258.000 51.305 260.900 51.119 C 268.591 50.625,268.576 43.171,260.883 42.526 L 258.000 42.284 258.000 46.795 " stroke="none" fill="#ffffff" fill-rule="evenodd"></path><path id="path2" d="M29.400 30.293 C 27.640 31.296,23.996 33.412,21.302 34.995 L 16.404 37.875 24.204 42.587 C 30.795 46.569,32.185 47.263,33.175 47.065 C 34.110 46.878,42.996 41.711,47.834 38.541 C 48.817 37.897,45.333 35.525,35.000 29.799 L 32.600 28.469 29.400 30.293 M16.011 47.876 L 16.022 57.400 23.941 62.100 C 28.297 64.685,31.937 66.800,32.030 66.800 C 32.266 66.801,32.049 50.486,31.793 48.958 C 31.611 47.868,22.973 42.044,16.300 38.512 C 16.135 38.424,16.005 42.638,16.011 47.876 M41.706 42.921 C 37.695 45.384,34.410 47.625,34.406 47.900 C 34.403 48.175,34.226 48.400,34.014 48.400 C 33.781 48.400,33.583 52.041,33.514 57.600 C 33.451 62.661,33.442 66.801,33.493 66.800 C 33.544 66.800,37.099 64.804,41.393 62.364 L 49.200 57.927 49.200 48.164 C 49.200 42.794,49.155 38.409,49.100 38.421 C 49.045 38.433,45.718 40.458,41.706 42.921 " stroke="none" fill="#aa0010" fill-rule="evenodd"></path><path id="path3" d="M13.000 5.225 C 9.480 7.216,5.385 9.503,3.900 10.307 L 1.200 11.768 1.200 35.017 L 1.200 58.265 15.300 66.673 C 23.055 71.298,30.138 75.502,31.040 76.015 L 32.680 76.949 39.040 73.331 C 42.538 71.342,48.820 67.779,53.000 65.413 C 57.180 63.048,61.344 60.686,62.254 60.166 L 63.908 59.220 64.185 48.310 C 64.338 42.309,64.403 35.600,64.331 33.400 L 64.200 29.400 48.679 19.854 L 33.158 10.308 27.168 13.954 C 23.873 15.959,21.093 17.600,20.989 17.600 C 20.885 17.600,20.800 14.000,20.800 9.600 C 20.800 -0.046,21.563 0.381,13.000 5.225 M15.928 29.600 C 16.318 29.600,18.429 28.489,20.619 27.130 C 22.809 25.772,26.509 23.550,28.842 22.193 L 33.085 19.725 38.642 23.132 C 41.699 25.006,45.820 27.517,47.800 28.712 C 49.780 29.908,52.525 31.608,53.900 32.490 L 56.400 34.094 56.377 42.747 C 56.348 53.509,56.237 54.209,54.400 55.201 C 48.816 58.217,37.759 64.387,35.685 65.644 C 32.621 67.502,33.397 67.737,23.885 62.060 C 19.878 59.669,15.340 57.026,13.800 56.187 C 12.260 55.349,10.505 54.321,9.900 53.904 L 8.800 53.146 8.800 36.035 C 8.800 16.614,8.387 18.766,12.600 16.242 L 15.000 14.804 15.109 22.202 C 15.209 28.980,15.277 29.600,15.928 29.600 M154.170 27.623 C 143.658 31.667,143.075 49.558,153.309 54.021 C 156.492 55.409,161.195 55.559,164.838 54.388 C 167.932 53.393,167.980 53.295,166.845 50.316 L 166.432 49.231 164.716 49.989 C 157.393 53.225,151.211 49.294,151.206 41.400 C 151.201 32.501,156.975 28.696,165.220 32.163 C 165.848 32.428,167.200 30.269,167.200 29.003 C 167.200 27.170,157.905 26.186,154.170 27.623 M303.544 27.404 C 292.744 30.863,292.376 50.391,303.036 54.379 C 312.615 57.963,320.600 51.880,320.600 41.000 C 320.600 30.365,313.062 24.356,303.544 27.404 M332.970 27.623 C 322.458 31.667,321.875 49.558,332.109 54.021 C 335.292 55.409,339.995 55.559,343.638 54.388 C 346.732 53.393,346.780 53.295,345.645 50.316 L 345.232 49.231 343.516 49.989 C 336.193 53.225,330.011 49.294,330.006 41.400 C 330.001 32.501,335.775 28.696,344.020 32.163 C 344.648 32.428,346.000 30.269,346.000 29.003 C 346.000 27.170,336.705 26.186,332.970 27.623 M380.404 27.326 C 378.132 28.050,375.713 30.773,375.382 32.981 C 374.670 37.730,375.791 39.316,381.935 42.250 C 387.626 44.967,388.000 45.277,388.000 47.280 C 388.000 51.074,382.851 52.223,376.717 49.797 C 376.001 49.514,375.731 50.128,375.507 52.551 C 375.207 55.779,386.841 56.194,390.607 53.090 C 396.050 48.603,393.830 42.167,385.623 38.644 C 376.789 34.852,380.072 28.504,389.194 31.736 C 391.351 32.500,391.558 32.339,391.694 29.798 L 391.800 27.825 389.800 27.351 C 387.285 26.755,382.240 26.741,380.404 27.326 M93.200 41.000 L 93.200 54.800 95.800 54.800 L 98.400 54.800 98.400 48.800 L 98.400 42.800 104.000 42.800 L 109.600 42.800 109.600 48.800 L 109.600 54.800 112.200 54.800 L 114.800 54.800 114.800 41.000 L 114.800 27.200 112.200 27.200 L 109.600 27.200 109.600 33.000 L 109.600 38.800 104.000 38.800 L 98.400 38.800 98.400 33.000 L 98.400 27.200 95.800 27.200 L 93.200 27.200 93.200 41.000 M123.614 40.484 C 120.907 47.808,118.607 54.025,118.503 54.300 C 118.364 54.667,118.989 54.800,120.857 54.800 L 123.400 54.800 124.780 50.800 L 126.160 46.800 131.251 46.800 L 136.343 46.800 137.179 49.100 C 137.639 50.365,138.297 52.165,138.641 53.100 L 139.266 54.800 141.833 54.800 C 143.245 54.800,144.394 54.665,144.386 54.500 C 144.378 54.335,142.079 48.170,139.277 40.800 L 134.181 27.400 131.359 27.284 L 128.537 27.168 123.614 40.484 M171.600 41.000 L 171.600 54.800 174.200 54.800 L 176.800 54.800 176.800 47.745 L 176.800 40.690 181.223 46.445 C 188.447 55.845,187.340 54.874,190.668 54.727 L 193.535 54.600 187.968 47.498 C 184.905 43.592,182.400 40.289,182.400 40.157 C 182.400 39.930,186.307 35.249,191.126 29.700 L 193.298 27.200 190.349 27.209 L 187.400 27.218 182.200 33.495 L 177.000 39.772 176.890 33.486 L 176.780 27.200 174.190 27.200 L 171.600 27.200 171.600 41.000 M196.800 41.000 L 196.800 54.800 205.400 54.800 L 214.000 54.800 214.000 52.800 L 214.000 50.800 208.000 50.800 L 202.000 50.800 202.000 46.800 L 202.000 42.800 207.400 42.800 L 212.800 42.800 212.800 40.800 L 212.800 38.800 207.400 38.800 L 202.000 38.800 202.000 35.000 L 202.000 31.200 207.600 31.200 L 213.200 31.200 213.200 29.200 L 213.200 27.200 205.000 27.200 L 196.800 27.200 196.800 41.000 M219.200 41.000 L 219.200 54.800 221.800 54.800 L 224.400 54.800 224.400 48.946 L 224.400 43.091 226.300 43.340 C 228.806 43.669,229.792 44.853,232.114 50.325 L 233.928 54.600 236.564 54.718 C 238.014 54.783,239.200 54.740,239.200 54.622 C 239.200 53.578,234.179 43.207,233.299 42.433 C 232.632 41.846,232.389 41.404,232.681 41.306 C 237.567 39.678,238.844 32.464,234.842 29.097 C 232.988 27.536,231.247 27.205,224.900 27.202 L 219.200 27.200 219.200 41.000 M252.800 41.000 L 252.800 54.800 259.100 54.791 C 266.040 54.782,267.673 54.380,269.709 52.184 C 272.618 49.048,271.790 43.130,268.205 41.429 L 266.716 40.723 267.962 39.965 C 271.573 37.768,271.831 31.948,268.442 29.097 C 266.588 27.536,264.847 27.205,258.500 27.202 L 252.800 27.200 252.800 41.000 M276.800 41.000 L 276.800 54.800 285.400 54.800 L 294.000 54.800 294.000 52.800 L 294.000 50.800 288.000 50.800 L 282.000 50.800 282.000 39.000 L 282.000 27.200 279.400 27.200 L 276.800 27.200 276.800 41.000 M350.400 41.000 L 350.400 54.800 353.000 54.800 L 355.600 54.800 355.600 47.745 L 355.600 40.690 360.023 46.445 C 367.247 55.845,366.140 54.874,369.468 54.727 L 372.335 54.600 366.768 47.498 C 363.705 43.592,361.200 40.289,361.200 40.157 C 361.200 39.930,365.107 35.249,369.926 29.700 L 372.098 27.200 369.149 27.209 L 366.200 27.218 361.000 33.495 L 355.800 39.772 355.690 33.486 L 355.580 27.200 352.990 27.200 L 350.400 27.200 350.400 41.000 M30.500 29.242 C 29.345 29.915,28.400 30.558,28.400 30.671 C 28.400 30.784,29.360 30.334,30.534 29.672 L 32.669 28.467 35.134 29.857 C 36.490 30.621,37.600 31.167,37.600 31.070 C 37.600 30.919,32.873 27.984,32.671 28.009 C 32.632 28.014,31.655 28.569,30.500 29.242 M26.700 31.429 C 25.205 32.240,25.296 32.578,26.800 31.800 C 27.460 31.459,28.000 31.094,28.000 30.990 C 28.000 30.732,27.957 30.747,26.700 31.429 M229.600 31.323 C 234.628 33.037,232.548 38.972,226.735 39.499 L 224.400 39.711 224.400 35.256 L 224.400 30.800 226.300 30.823 C 227.345 30.835,228.830 31.060,229.600 31.323 M263.332 31.230 C 265.368 31.795,266.311 33.786,265.625 36.074 C 265.058 37.966,264.270 38.390,260.780 38.683 L 258.000 38.916 258.000 34.858 L 258.000 30.800 259.900 30.802 C 260.945 30.803,262.489 30.996,263.332 31.230 M311.737 31.907 C 316.523 34.702,317.068 46.014,312.586 49.539 C 307.180 53.792,300.817 49.758,300.455 41.850 C 300.066 33.356,305.706 28.385,311.737 31.907 M38.000 31.340 C 38.000 31.599,48.194 37.601,48.623 37.594 C 48.830 37.591,46.840 36.314,44.200 34.756 C 38.529 31.410,38.000 31.119,38.000 31.340 M20.600 34.996 C 18.180 36.419,16.349 37.586,16.531 37.591 C 16.923 37.602,25.200 32.801,25.200 32.563 C 25.200 32.295,25.164 32.314,20.600 34.996 M134.800 42.887 C 134.800 43.059,133.180 43.200,131.200 43.200 C 129.220 43.200,127.600 43.125,127.600 43.034 C 127.600 42.943,128.429 40.520,129.443 37.649 L 131.286 32.429 133.043 37.502 C 134.009 40.291,134.800 42.715,134.800 42.887 M49.334 41.200 C 49.334 42.850,49.405 43.525,49.491 42.700 C 49.578 41.875,49.578 40.525,49.491 39.700 C 49.405 38.875,49.334 39.550,49.334 41.200 M263.000 42.789 C 265.995 43.480,267.260 46.377,265.799 49.201 C 265.098 50.557,263.279 51.194,260.100 51.198 L 258.000 51.200 258.000 46.800 L 258.000 42.400 259.700 42.410 C 260.635 42.415,262.120 42.585,263.000 42.789 " stroke="none" fill="#929297" fill-rule="evenodd"></path><path id="path4" d="M15.772 48.000 C 15.772 53.170,15.829 55.285,15.899 52.700 C 15.968 50.115,15.968 45.885,15.899 43.300 C 15.829 40.715,15.772 42.830,15.772 48.000 M49.365 51.000 C 49.366 54.960,49.426 56.526,49.498 54.480 C 49.571 52.434,49.571 49.194,49.498 47.280 C 49.424 45.366,49.365 47.040,49.365 51.000 " stroke="none" fill="#dcdcde" fill-rule="evenodd"></path></g></svg>