<svg id="svg" version="1.1" width="1000" height="197" xmlns="http://www.w3.org/2000/svg" xmlns:xlink="http://www.w3.org/1999/xlink" style="display: block;"><g id="svgg"><path id="path0" d="M13.703 4.531 C 11.010 6.109,7.140 8.328,5.103 9.463 L 1.400 11.526 1.400 35.019 L 1.400 58.512 5.400 61.045 C 7.600 62.438,9.541 63.583,9.712 63.589 C 9.884 63.595,12.314 65.017,15.112 66.749 C 17.911 68.481,20.796 70.201,21.526 70.572 C 22.255 70.943,24.837 72.496,27.265 74.023 C 32.708 77.447,32.426 77.453,38.605 73.773 C 41.401 72.109,44.073 70.597,44.544 70.413 C 45.015 70.229,48.009 68.531,51.197 66.639 C 54.385 64.748,57.124 63.200,57.283 63.200 C 57.506 63.200,63.254 59.882,63.944 59.355 C 64.268 59.108,64.668 29.390,64.349 29.268 C 64.160 29.195,61.709 27.688,58.903 25.920 C 56.096 24.151,52.970 22.231,51.954 21.652 C 50.939 21.073,48.149 19.371,45.754 17.870 C 43.360 16.368,39.539 14.002,37.265 12.611 L 33.130 10.082 29.065 12.572 C 26.829 13.941,24.100 15.597,23.000 16.253 L 21.000 17.444 21.116 9.522 L 21.232 1.600 19.916 1.631 C 19.044 1.652,16.948 2.630,13.703 4.531 M14.883 22.400 C 14.802 27.696,14.899 30.000,15.203 30.000 C 15.871 30.000,17.756 28.955,22.944 25.709 C 25.553 24.077,27.983 22.634,28.344 22.503 C 28.705 22.371,29.925 21.680,31.056 20.965 L 33.112 19.666 34.502 20.611 C 35.267 21.131,36.772 22.046,37.846 22.646 C 38.921 23.245,41.818 25.010,44.284 26.568 C 46.750 28.125,50.398 30.388,52.390 31.595 L 56.013 33.791 55.906 44.140 L 55.800 54.490 52.853 56.026 C 51.231 56.871,49.611 57.814,49.253 58.122 C 48.528 58.744,34.201 66.897,33.111 67.307 C 32.440 67.559,16.740 58.586,15.795 57.411 C 15.573 57.134,14.313 56.358,12.995 55.686 C 8.751 53.522,9.182 55.739,9.182 36.075 C 9.182 26.547,9.283 18.589,9.407 18.389 C 9.530 18.189,10.839 17.301,12.316 16.415 C 13.792 15.529,15.000 14.803,15.000 14.802 C 15.000 14.800,14.947 18.219,14.883 22.400 M154.469 27.368 C 143.832 30.843,142.644 48.932,152.727 53.884 C 155.821 55.403,163.035 55.538,166.074 54.134 L 167.948 53.268 167.290 51.209 C 166.803 49.688,166.471 49.204,166.016 49.357 C 165.677 49.470,164.320 49.949,163.000 50.421 C 156.115 52.883,150.576 47.839,151.328 39.790 C 152.014 32.442,157.292 29.188,164.126 31.902 C 165.848 32.585,166.087 32.450,166.992 30.283 L 167.625 28.766 165.712 27.919 C 163.256 26.830,157.047 26.526,154.469 27.368 M303.481 27.377 C 292.389 31.334,292.220 50.978,303.248 54.540 C 311.900 57.334,319.446 52.708,320.808 43.773 C 322.555 32.314,313.544 23.787,303.481 27.377 M333.269 27.368 C 322.632 30.843,321.444 48.932,331.527 53.884 C 334.621 55.403,341.835 55.538,344.874 54.134 L 346.748 53.268 346.090 51.209 C 345.603 49.688,345.271 49.204,344.816 49.357 C 344.477 49.470,343.120 49.949,341.800 50.421 C 334.915 52.883,329.376 47.839,330.128 39.790 C 330.814 32.442,336.092 29.188,342.926 31.902 C 344.648 32.585,344.887 32.450,345.792 30.283 L 346.425 28.766 344.512 27.919 C 342.056 26.830,335.847 26.526,333.269 27.368 M379.147 27.920 C 376.061 29.533,375.130 31.280,375.295 35.155 C 375.453 38.852,376.777 40.242,382.382 42.592 C 388.170 45.020,389.342 46.885,386.839 49.687 C 385.418 51.277,382.568 51.462,378.497 50.229 C 375.571 49.343,375.766 49.240,375.412 51.865 L 375.134 53.931 378.204 54.614 C 386.585 56.478,392.125 54.295,393.279 48.673 C 394.238 44.000,392.805 42.032,385.991 38.666 C 380.437 35.922,379.629 35.015,380.826 32.873 C 382.112 30.572,384.476 30.414,390.641 32.216 C 391.496 32.467,392.779 28.625,392.068 27.943 C 390.518 26.456,381.979 26.441,379.147 27.920 M93.200 41.000 L 93.200 54.800 95.800 54.800 L 98.400 54.800 98.400 48.800 L 98.400 42.800 104.000 42.800 L 109.600 42.800 109.600 48.800 L 109.600 54.800 112.200 54.800 L 114.800 54.800 114.800 41.000 L 114.800 27.200 112.200 27.200 L 109.600 27.200 109.600 33.000 L 109.600 38.800 104.000 38.800 L 98.400 38.800 98.400 33.000 L 98.400 27.200 95.800 27.200 L 93.200 27.200 93.200 41.000 M128.201 27.700 C 128.105 27.975,125.861 34.042,123.214 41.181 C 117.541 56.478,117.821 54.800,120.947 54.800 L 123.493 54.800 124.864 50.900 L 126.236 47.000 131.260 46.888 L 136.285 46.777 137.660 50.688 L 139.034 54.600 141.878 54.717 L 144.722 54.833 141.553 46.517 C 139.810 41.943,137.458 35.725,136.327 32.700 L 134.270 27.200 131.322 27.200 C 129.324 27.200,128.319 27.361,128.201 27.700 M171.600 41.000 L 171.600 54.800 174.191 54.800 L 176.781 54.800 176.891 47.973 L 177.000 41.145 182.200 47.972 L 187.400 54.798 190.524 54.799 C 192.914 54.800,193.578 54.683,193.352 54.300 C 193.058 53.803,183.948 41.969,182.938 40.774 C 182.481 40.233,183.113 39.320,187.595 34.052 C 190.447 30.699,192.885 27.786,193.014 27.578 C 193.152 27.354,192.031 27.200,190.253 27.200 L 187.259 27.200 182.129 33.370 L 177.000 39.540 176.890 33.370 L 176.780 27.200 174.190 27.200 L 171.600 27.200 171.600 41.000 M196.800 41.000 L 196.800 54.800 205.400 54.800 L 214.000 54.800 214.000 52.800 L 214.000 50.800 208.000 50.800 L 202.000 50.800 202.000 46.800 L 202.000 42.800 207.400 42.800 L 212.800 42.800 212.800 40.800 L 212.800 38.800 207.400 38.800 L 202.000 38.800 202.000 35.000 L 202.000 31.200 207.600 31.200 L 213.200 31.200 213.200 29.200 L 213.200 27.200 205.000 27.200 L 196.800 27.200 196.800 41.000 M219.200 41.000 L 219.200 54.800 221.800 54.800 L 224.400 54.800 224.400 49.000 L 224.400 43.200 225.413 43.200 C 228.479 43.200,229.869 44.968,233.041 52.899 L 233.800 54.797 236.650 54.799 L 239.500 54.800 237.055 49.157 C 235.711 46.053,234.189 43.057,233.673 42.500 C 232.796 41.554,232.958 40.833,234.053 40.806 C 235.988 40.759,237.916 35.610,237.145 32.549 C 236.068 28.270,233.670 27.205,225.100 27.202 L 219.200 27.200 219.200 41.000 M252.800 40.966 L 252.800 54.800 258.900 54.798 C 262.255 54.797,265.669 54.610,266.488 54.382 C 272.324 52.761,273.492 44.335,268.289 41.386 L 266.852 40.572 268.062 40.037 C 270.824 38.814,271.872 33.308,269.899 30.381 C 268.131 27.758,266.989 27.416,259.500 27.266 L 252.800 27.133 252.800 40.966 M276.800 41.000 L 276.800 54.800 285.400 54.800 L 294.000 54.800 294.000 52.800 L 294.000 50.800 288.000 50.800 L 282.000 50.800 282.000 39.000 L 282.000 27.200 279.400 27.200 L 276.800 27.200 276.800 41.000 M350.400 41.000 L 350.400 54.800 352.991 54.800 L 355.581 54.800 355.691 47.973 L 355.800 41.145 361.000 47.972 L 366.200 54.798 369.324 54.799 C 371.714 54.800,372.378 54.683,372.152 54.300 C 371.858 53.803,362.748 41.969,361.738 40.774 C 361.281 40.233,361.913 39.320,366.395 34.052 C 369.247 30.699,371.685 27.786,371.814 27.578 C 371.952 27.354,370.831 27.200,369.053 27.200 L 366.059 27.200 360.929 33.370 L 355.800 39.540 355.690 33.370 L 355.580 27.200 352.990 27.200 L 350.400 27.200 350.400 41.000 M228.926 31.228 C 234.911 32.890,232.345 39.542,225.700 39.590 L 224.400 39.600 224.400 35.200 L 224.400 30.800 225.900 30.802 C 226.725 30.803,228.087 30.995,228.926 31.228 M262.888 31.218 C 268.375 32.741,265.831 38.790,259.700 38.798 L 258.000 38.800 258.000 34.800 L 258.000 30.800 259.700 30.802 C 260.635 30.803,262.070 30.990,262.888 31.218 M310.040 31.254 C 317.938 33.894,317.186 49.793,309.105 51.005 C 305.559 51.537,302.193 49.094,301.017 45.133 C 298.576 36.912,303.644 29.117,310.040 31.254 M134.800 43.064 C 134.800 43.139,133.183 43.200,131.207 43.200 L 127.613 43.200 129.407 38.115 C 130.393 35.319,131.202 32.934,131.205 32.815 C 131.210 32.591,134.800 42.826,134.800 43.064 M264.275 43.335 C 268.533 45.537,266.390 50.681,261.045 51.085 L 258.000 51.315 258.000 46.803 L 258.000 42.290 260.518 42.493 C 261.903 42.604,263.594 42.983,264.275 43.335 " stroke="none" fill="#ffffff" fill-rule="evenodd"></path><path id="path1" d="M15.200 47.151 C 15.200 55.771,15.268 56.756,15.900 57.251 C 16.525 57.741,16.545 57.729,16.086 57.142 C 15.692 56.638,15.598 54.269,15.686 47.041 C 15.749 41.848,15.665 37.599,15.500 37.600 C 15.335 37.600,15.200 41.898,15.200 47.151 M20.366 59.882 C 20.897 60.277,22.067 61.013,22.966 61.518 C 23.865 62.022,24.165 62.112,23.634 61.718 C 23.103 61.323,21.933 60.587,21.034 60.082 C 20.135 59.578,19.835 59.488,20.366 59.882 M29.600 65.350 C 29.600 65.444,30.241 65.899,31.024 66.361 C 31.807 66.823,32.336 67.020,32.199 66.798 C 31.931 66.364,29.600 65.066,29.600 65.350 " stroke="none" fill="#9d000c" fill-rule="evenodd"></path><path id="path2" d="M15.613 47.300 C 15.625 56.265,15.938 58.728,16.940 57.727 C 17.083 57.584,17.200 57.687,17.200 57.957 C 17.200 58.227,17.373 58.340,17.585 58.209 C 17.797 58.078,18.337 58.337,18.785 58.785 C 19.233 59.233,19.659 59.555,19.731 59.500 C 20.066 59.245,22.723 61.001,22.514 61.340 C 22.383 61.551,22.478 61.599,22.724 61.447 C 22.970 61.295,23.522 61.522,23.952 61.952 C 24.382 62.382,24.838 62.628,24.967 62.500 C 25.095 62.372,25.200 62.487,25.200 62.757 C 25.200 63.027,25.353 63.153,25.539 63.037 C 25.726 62.922,26.277 63.199,26.765 63.653 C 27.252 64.107,27.924 64.518,28.257 64.567 C 28.591 64.616,29.005 64.884,29.177 65.162 C 29.349 65.441,29.649 65.655,29.845 65.639 C 30.533 65.582,31.609 66.061,31.434 66.346 C 31.336 66.504,31.588 66.659,31.994 66.690 C 33.012 66.766,33.069 48.620,32.054 47.600 C 31.726 47.270,31.444 47.072,31.429 47.160 C 31.369 47.492,26.800 44.706,26.800 44.338 C 26.800 44.126,26.627 44.060,26.415 44.191 C 26.203 44.322,25.678 44.078,25.248 43.648 C 24.818 43.218,24.366 42.967,24.243 43.091 C 24.120 43.214,23.906 43.020,23.768 42.660 C 23.629 42.299,23.382 42.087,23.219 42.188 C 23.055 42.290,22.553 42.029,22.103 41.610 C 21.653 41.191,21.176 40.957,21.043 41.091 C 20.909 41.224,20.800 41.113,20.800 40.843 C 20.800 40.573,20.631 40.457,20.425 40.585 C 20.218 40.712,19.864 40.498,19.637 40.108 C 19.410 39.719,19.219 39.537,19.212 39.705 C 19.205 39.873,18.484 39.558,17.608 39.005 C 16.732 38.452,15.922 38.000,15.808 38.000 C 15.694 38.000,15.606 42.185,15.613 47.300 M45.900 59.429 C 44.405 60.240,44.496 60.578,46.000 59.800 C 46.660 59.459,47.200 59.094,47.200 58.990 C 47.200 58.732,47.157 58.747,45.900 59.429 " stroke="none" fill="#a61327" fill-rule="evenodd"></path><path id="path3" d="M48.041 38.767 C 47.669 39.268,47.621 39.274,47.815 38.800 C 47.982 38.390,47.879 38.419,47.490 38.894 C 47.177 39.275,46.804 39.470,46.660 39.327 C 46.517 39.184,46.400 39.256,46.400 39.487 C 46.400 39.939,44.796 41.111,43.930 41.290 C 43.640 41.351,43.183 41.670,42.914 42.000 C 42.645 42.330,42.420 42.467,42.413 42.304 C 42.406 42.141,42.034 42.321,41.587 42.704 C 41.140 43.087,40.645 43.395,40.487 43.390 C 40.329 43.384,39.879 43.654,39.487 43.990 C 39.095 44.325,38.690 44.555,38.587 44.500 C 38.484 44.445,38.033 44.767,37.585 45.215 C 37.137 45.663,36.616 45.934,36.427 45.817 C 36.238 45.700,35.976 45.885,35.845 46.228 C 35.713 46.570,35.424 46.739,35.203 46.602 C 34.981 46.465,34.800 46.554,34.800 46.800 C 34.800 47.046,34.639 47.148,34.442 47.026 C 34.245 46.904,33.978 47.081,33.848 47.420 C 33.653 47.928,33.455 47.951,32.706 47.552 C 31.939 47.143,31.869 47.156,32.247 47.635 C 32.551 48.019,32.679 51.218,32.647 57.633 C 32.612 64.756,32.718 67.067,33.082 67.067 C 33.348 67.067,33.472 66.917,33.359 66.733 C 33.171 66.429,33.754 66.235,34.500 66.353 C 34.665 66.379,34.800 66.209,34.800 65.976 C 34.800 65.743,34.980 65.664,35.200 65.800 C 35.420 65.936,35.600 65.827,35.600 65.557 C 35.600 65.287,35.714 65.180,35.853 65.319 C 36.121 65.587,39.707 63.650,39.933 63.115 C 40.007 62.942,40.309 62.800,40.605 62.800 C 40.901 62.800,41.426 62.517,41.771 62.171 C 42.117 61.826,42.400 61.646,42.400 61.771 C 42.400 61.897,42.767 61.633,43.215 61.185 C 43.663 60.737,44.203 60.478,44.415 60.609 C 44.627 60.740,44.800 60.661,44.800 60.434 C 44.800 59.915,47.010 58.743,47.349 59.083 C 47.487 59.221,47.600 59.113,47.600 58.843 C 47.600 58.573,47.781 58.465,48.003 58.602 C 48.224 58.739,48.513 58.570,48.645 58.228 C 48.776 57.885,49.045 57.704,49.242 57.826 C 49.449 57.954,49.600 53.849,49.600 48.090 C 49.600 37.843,49.440 36.885,48.041 38.767 " stroke="none" fill="#be2439" fill-rule="evenodd"></path><path id="path4" d="M29.600 29.466 C 28.170 30.251,26.522 31.233,25.938 31.647 C 25.354 32.061,24.792 32.400,24.689 32.400 C 24.586 32.400,22.852 33.390,20.836 34.600 C 18.819 35.810,17.007 36.800,16.808 36.800 C 14.998 36.800,17.842 38.868,27.490 44.566 C 29.959 46.024,32.227 47.312,32.531 47.429 C 32.834 47.545,35.404 46.227,38.241 44.499 C 41.079 42.771,43.843 41.097,44.385 40.778 C 44.926 40.460,45.569 40.020,45.814 39.800 C 46.059 39.580,46.921 39.044,47.729 38.609 C 49.356 37.734,49.551 37.306,48.500 36.914 C 47.880 36.682,39.548 31.827,38.000 30.795 C 37.670 30.575,37.130 30.274,36.800 30.127 C 36.470 29.979,35.529 29.440,34.708 28.929 C 32.809 27.747,32.710 27.757,29.600 29.466 " stroke="none" fill="#cc253c" fill-rule="evenodd"></path></g></svg>