<?xml version="1.0" encoding="utf-8"?>
<!-- Generator: Adobe Illustrator 21.0.0, SVG Export Plug-In . SVG Version: 6.00 Build 0)  -->
<svg version="1.1" id="Layer_1" xmlns="http://www.w3.org/2000/svg" xmlns:xlink="http://www.w3.org/1999/xlink" x="0px" y="0px"
	 viewBox="0 0 487.9 107.4" style="enable-background:new 0 0 487.9 107.4;" xml:space="preserve">
<style type="text/css">
	.st0{fill:#939498;}
	.st1{fill:#CC253C;}
	.st2{fill:#A61327;}
	.st3{fill:#BE2539;}
</style>
<path class="st0" d="M47.4,22.1l-13.8,8.8h-0.8V11.7h-1.5L9.4,23.9v55.5L47,101.7l37.6-22v-35L47.4,22.1z M75.1,74.4L47,89.9
	L18.4,73.1V31.6l7.7-4.8v18.3h1.2L47,32.9l28.1,17.2V74.4z"/>
<polygon class="st1" points="27.4,54.4 47,42.9 66.6,54.4 47,66.7 "/>
<polygon class="st2" points="26.6,54.8 26.6,77.6 46.6,89.6 46.6,67.4 "/>
<polygon class="st3" points="47.3,89.6 67.1,78.8 67.1,55.3 47.3,67.3 "/>
<polygon class="st0" points="118.8,42.1 125.1,42.1 125.1,55.9 138.3,55.9 138.3,42.1 144.6,42.1 144.6,74.9 138.3,74.9 138.3,60.6 
	125.1,60.6 125.2,74.9 118.8,74.9 "/>
<path class="st0" d="M167.5,42.1h-6.7l-12.2,32.7h6.3l3.2-9.5h12.2l3.3,9.5h6.5L167.5,42.1z M159.5,61.1l4.9-13.2l4.5,13.2H159.5z"
	/>
<path class="st0" d="M207.4,44.1l-1.9,4.4c0,0-10.4-5.7-15.5,1.9c0,0-4.3,6.2-1.1,14.4s11.8,5.6,11.8,5.6s4-1.2,4.9-2l0.4,0.2
	l1.3,4.5c0,0-8.4,5.7-19.1,0c0,0-9.8-3.8-5-23.1c0,0,3.7-11.8,21.2-7.3C204.5,42.7,207.1,43.4,207.4,44.1z"/>
<path class="st0" d="M420,43.9l-1.9,4.4c0,0-10.4-5.7-15.5,1.9c0,0-4.3,6.2-1.1,14.4s11.8,5.6,11.8,5.6s4-1.2,4.9-2l0.4,0.2l1.3,4.5
	c0,0-8.4,5.7-19.1,0c0,0-9.8-3.8-5-23.1c0,0,3.7-11.8,21.2-7.3C417.1,42.6,419.7,43.2,420,43.9z"/>
<polygon class="st0" points="212.1,42.1 218.2,42.1 218.2,56.8 218.7,56.8 230.7,42.1 237.9,42.1 225.3,57.4 225,57.8 238.4,74.9 
	230.8,74.9 218.5,58.5 218.3,59.9 218.2,74.9 212.1,74.9 "/>
<polygon class="st0" points="425,42.2 431.1,42.2 431.1,57 431.6,57 443.6,42.2 450.8,42.2 438.2,57.6 437.9,57.9 451.3,75 
	443.7,75 431.4,58.6 431.2,60.1 431.1,75 425,75 "/>
<polygon class="st0" points="242.1,42.1 242.1,74.9 262.6,74.9 262.6,70.1 248.2,70.1 248.3,60.7 261.1,60.6 261.1,55.9 248.2,55.9 
	248.2,46.8 261.5,46.9 261.6,42.1 "/>
<path class="st0" d="M284.2,59.3l0.2-0.5c0,0,6.2-0.8,5.8-8.4s-8.8-8.4-8.8-8.4h-12.8l0.1,32.8h6.2V61.3l2.8-0.1c0,0,2.4,0,3.9,3.2
	c1.6,3.2,4.6,10.5,4.6,10.5h6.8C293,74.9,287.1,58.6,284.2,59.3z M279.1,56.8h-4.2V46.4h4.7c0,0,4.8,0.3,4.7,5.2
	S279.1,56.8,279.1,56.8z"/>
<path class="st0" d="M325.3,58.5v-0.6c0,0,5.3-1.7,4.8-7.2s-2.5-8.2-7.2-8.6h-14.4v32.8H322c0,0,9.1-0.3,8.9-8.9
	S325.3,58.5,325.3,58.5z M314.8,46.5c0,0,0,0,5,0s4.4,4.7,4.4,4.7c0.8,3.9-4.4,4.7-4.4,4.7h-5V46.5z M320.2,70.6h-5.4V60.1h5
	c0,0,5-0.2,5,5.2S320.2,70.6,320.2,70.6z"/>
<polygon class="st0" points="337,42.1 337,74.9 357.6,74.9 357.6,70.1 343.3,70.1 343.4,42.1 "/>
<path class="st0" d="M374.4,41.6c0,0-15.3-0.9-15.5,16.9c-0.2,17.8,15.5,16.9,15.5,16.9s14.9,0.5,15-16.9
	C389.5,41.1,374.4,41.6,374.4,41.6z M374.2,70.6c0,0-9.1,0.3-9.1-12.2s9.1-12,9.1-12s8.2,0,9,12S374.2,70.6,374.2,70.6z"/>
<path class="st0" d="M474.3,43.1l-0.8,5.5c0,0-11.8-6.2-13.5,1.8c0,0,0.3,3.3,4.7,4.3c0,0,8,3.3,9.7,5.7c1.7,2.3,1.8,8.8,0,10.8
	c-1.8,2-3.8,4.2-10.3,4.2c0,0-7-0.2-9.7-2l0.8-4.7c0,0,12.2,5.3,14.2-1.7c0,0,2.3-4.2-5.5-6.2c0,0-7.7-2.2-9.5-7v-5.8
	c0,0,1.5-4,6.2-6C465.1,40.1,474.3,43.1,474.3,43.1z"/>
</svg>
